<svg width="512" height="512" viewBox="0 0 512 512" fill="none" xmlns="http://www.w3.org/2000/svg">
<rect width="512" height="512" rx="40" fill="white"/>
<path d="M280.65 151.654H102.85V181.054H218V261.204H107.05V289.904H218V370.754H100.05V400.154H248.1V329.454H343.3L379.7 400.154H413.65L280.65 151.654ZM328.25 300.054H248.1V180.004H265.95L328.25 300.054Z" fill="black"/>
<rect x="30" y="60.1538" width="225.577" height="451.154" rx="40" fill="white"/>
<path d="M129.365 316.854C129.715 355.004 147.215 376.354 177.665 376.354C209.165 376.354 227.015 353.604 227.015 313.354V151.654H257.115V313.354C257.115 370.054 226.315 405.754 177.665 405.754C131.465 405.754 98.9152 370.054 98.5652 319.654L129.365 316.854Z" fill="black"/>
<path d="M296.55 81.35L265.05 126.85H241.95L264 81.35H296.55Z" fill="black"/>
<circle cx="177.077" cy="331.077" r="30.0769" fill="#64CCC5"/>
</svg>
